<?xml version="1.0" standalone="no"?>
<!DOCTYPE svg PUBLIC "-//W3C//DTD SVG 20010904//EN"
 "http://www.w3.org/TR/2001/REC-SVG-20010904/DTD/svg10.dtd">
<svg version="1.0" xmlns="http://www.w3.org/2000/svg"
 width="100%" height="100%" viewBox="0 0 235.000000 112.000000"
 preserveAspectRatio="none">
<g transform="translate(0.000000,112.000000) scale(0.100000,-0.100000)"
fill="#0b2ab1" stroke="none">
<path d="M20 1060 c-13 -13 -20 -33 -20 -60 0 -56 128 -907 140 -929 5 -10 17
-21 26 -25 8 -3 465 -6 1015 -6 1149 0 1029 -12 1048 106 37 226 121 822 121
855 0 26 -7 46 -20 59 -20 20 -33 20 -1155 20 -1122 0 -1135 0 -1155 -20z"/>
</g>
</svg>
