<svg xmlns="http://www.w3.org/2000/svg"
width="100%" height="800px" viewBox="0 0 1920.000000 800.000000"
preserveAspectRatio="xMidYMid meet">
<g transform="translate(0.000000,800.000000) scale(0.100000,-0.100000)"
fill="#07249e" stroke="none">
<path d="M0 4000 l0 -4000 3657 0 c2091 0 3653 4 3648 9 -6 5 -57 48 -115 96
-663 550 -1185 1233 -1450 1900 -326 819 -280 1550 154 2414 145 290 304 547
576 936 498 714 831 1055 1580 1625 280 212 404 317 516 432 166 171 255 310
323 501 l30 87 -4459 0 -4460 0 0 -4000z"/>
<path d="M18930 3926 c-913 -310 -1506 -549 -2085 -838 -1081 -541 -2218
-1323 -3105 -2137 -157 -144 -531 -514 -762 -753 l-190 -198 3206 0 3206 0 0
2005 c0 1598 -3 2005 -12 2004 -7 0 -123 -38 -258 -83z"/>
</g>
</svg>